<svg width="44" height="36" fill="none" xmlns="http://www.w3.org/2000/svg"><g fill="#004029"><path d="M1.287 28.547h33.69c.301 0 .593-.096.825-.271.324-.246 7.705-6.019 8.155-18.48H7.776C7.327 21.107.529 26.424.459 26.477c-.414.318-.567.838-.38 1.3.185.461.667.77 1.208.77zM42.711 2.765h-6.446V1.593c0-.656-.567-1.172-1.289-1.172s-1.289.516-1.289 1.172v1.172h-6.532V1.593c0-.656-.567-1.172-1.289-1.172s-1.289.516-1.289 1.172v1.172h-6.445V1.593c0-.656-.568-1.172-1.29-1.172-.721 0-1.289.516-1.289 1.172v1.172H9.108c-.722 0-1.29.516-1.29 1.172v3.516H44V3.937c0-.656-.567-1.172-1.29-1.172z"/><path d="M37.458 30.073c-.7.53-1.58.818-2.482.818H7.82v3.516c0 .648.576 1.172 1.289 1.172H42.71c.712 0 1.289-.524 1.289-1.172V21.27c-2.485 5.543-5.954 8.355-6.542 8.803z"/></g></svg>