<svg width="42" height="40" fill="none" xmlns="http://www.w3.org/2000/svg"><g fill="#004029"><path d="M4.984 39.2h21.824c-3.872-1.92-6.512-5.6-6.512-9.92 0-6.24 5.632-11.36 12.496-11.36h.176V4.96c0-2.24-2.112-4.16-4.576-4.16H4.984C2.52.8.408 2.72.408 4.96v30.08c0 2.24 1.936 4.16 4.576 4.16zm4.048-32h15.136c1.056 0 1.76.8 1.76 1.6 0 .96-.704 1.6-1.76 1.6H9.032c-1.056 0-1.76-.64-1.76-1.6 0-.8.88-1.6 1.76-1.6zm0 7.52h9.856c1.056 0 1.76.8 1.76 1.6 0 .96-.704 1.6-1.76 1.6H9.032c-1.056 0-1.76-.64-1.76-1.6 0-.96.88-1.6 1.76-1.6z"/><path d="M32.792 21.28c-4.928 0-8.976 3.68-8.976 8.16s4.048 8.16 8.976 8.16c4.928 0 8.976-3.68 8.976-8.16s-4.048-8.16-8.976-8.16zm4.4 7.36l-4.4 3.84c-.352.32-.704.48-1.232.48s-.88-.16-1.232-.48l-2.112-2.08c-.704-.64-.704-1.6.176-2.24.704-.64 1.76-.64 2.464 0l.88.96 3.168-2.72c.704-.64 1.76-.64 2.464 0 .528.48.528 1.6-.176 2.24z"/></g></svg>