<svg width="44" height="35" fill="none" xmlns="http://www.w3.org/2000/svg"><path d="M43.936 10.121c-.312-3.211-1.726-6.005-3.98-7.868C36.2-.852 29.6-1.537 21.998 5.363c-7.601-6.9-14.2-6.214-17.956-3.11C1.79 4.116.375 6.91.063 10.12c-.318 3.275.578 6.697 2.522 9.638 4.625 6.995 17.943 14.686 18.508 15.01a1.838 1.838 0 001.813 0c.565-.324 13.882-8.016 18.508-15.011 1.944-2.94 2.84-6.362 2.522-9.636zM21.462 21.52a1.834 1.834 0 01-1.296.542 1.82 1.82 0 01-1.296-.542l-3.667-3.697 2.593-2.614 2.37 2.39 6.037-6.087 2.593 2.615-7.334 7.393z" fill="#004029"/></svg>