<svg width="48" height="48" fill="none" xmlns="http://www.w3.org/2000/svg"><path d="M26.368 41.62H3.887a3.01 3.01 0 00-3.008 3.007v2.625c0 .152.123.276.275.276h27.947a.276.276 0 00.276-.276v-2.625a3.011 3.011 0 00-3.01-3.007zm-.566-2.46a3.234 3.234 0 00-3.236-3.228H7.684a3.234 3.234 0 00-3.235 3.228v1.912H25.8V39.16zm-6.155-14.383c.022.015.052.03.074.044l7.294-12.845c-.008 0-.008-.008-.015-.008l-9.691-5.5c-.015-.007-.037-.022-.052-.029L9.971 19.285l.25.14 9.426 5.352zM17.585 5.99l9.685 5.5a2.791 2.791 0 002.133.26 2.782 2.782 0 001.69-1.32l.153-.265.001-.002a2.816 2.816 0 00-1.052-3.836L20.51.837a2.818 2.818 0 00-3.834 1.062l-.155.267a2.798 2.798 0 00-.257 2.147 2.766 2.766 0 001.32 1.677M6.769 24.92l9.683 5.491a2.816 2.816 0 003.835-1.062l.154-.264.001-.003a2.794 2.794 0 00.258-2.133 2.774 2.774 0 00-1.323-1.692L9.94 19.901l-.247-.144a2.831 2.831 0 00-3.839 1.069l-.14.259a2.816 2.816 0 001.054 3.836zM47 29.308a3.045 3.045 0 00-1.493-1.86L25.14 16.396l-2.618 4.602 19.949 11.81a3.016 3.016 0 001.558.426c.272 0 .537-.03.802-.103a3.04 3.04 0 001.89-1.456A3.063 3.063 0 0047 29.307z" fill="#004029"/></svg>