<svg width="32" height="32" fill="none" xmlns="http://www.w3.org/2000/svg"><g clip-path="url(#clip0_32_148)"><path d="M23.785 19.53c3.019-4.942 2.405-11.493-1.865-15.77-5.007-5.008-13.157-5.008-18.165 0-5.007 5.007-5.007 13.157 0 18.158 4.271 4.27 10.824 4.883 15.772 1.864l7.335 7.335a3.014 3.014 0 004.258 0 3.014 3.014 0 000-4.257l-7.335-7.329zm-4.518-.26c-3.547 3.547-9.311 3.547-12.851 0-3.547-3.547-3.547-9.31 0-12.851 3.547-3.547 9.31-3.547 12.85 0 3.54 3.54 3.54 9.304 0 12.85zm-4.923-8.059h3.873v2.954h-3.873v3.872H11.39v-3.872H7.524V11.21h3.873V7.338h2.953v3.873h-.006z" fill="#004029"/></g><defs><clipPath id="clip0_32_148"><path fill="#fff" d="M0 0h32v32H0z"/></clipPath></defs></svg>