<svg width="40" height="40" fill="none" xmlns="http://www.w3.org/2000/svg"><path d="M39.452 1.874L38.126.548a1.878 1.878 0 00-2.652 0L2.868 33.155l-.007.008a.54.54 0 00-.046.058c-.01.013-.022.026-.032.041-.01.016-.018.033-.026.05a.455.455 0 00-.03.063l-.005.01-1.703 4.712-.836.836a.625.625 0 10.884.884l.836-.837 4.712-1.702c.004 0 .007-.003.01-.004.022-.009.042-.02.063-.03.017-.01.034-.017.05-.027a.423.423 0 00.042-.032c.02-.015.04-.03.057-.047l.008-.006L36.992 6.984l.451.452-11.027 11.028a.626.626 0 10.884.884l11.47-11.47a.625.625 0 000-.884l-.894-.894 1.576-1.575c.73-.73.73-1.92 0-2.65z" fill="#111"/></svg>