<svg width="38" height="38" fill="none" xmlns="http://www.w3.org/2000/svg"><path fill-rule="evenodd" clip-rule="evenodd" d="M12.48.016c6.883 0 12.463 5.58 12.463 12.463a12.41 12.41 0 01-2.642 7.674l2.867 2.868a3.177 3.177 0 013.131.797l8.761 8.761a3.178 3.178 0 010 4.481 3.178 3.178 0 01-4.48 0l-8.762-8.76a3.177 3.177 0 01-.797-3.132l-2.868-2.867a12.41 12.41 0 01-7.674 2.642c-6.883 0-12.463-5.58-12.463-12.464C.016 5.596 5.596.016 12.479.016zm0 3.514a8.95 8.95 0 100 17.899 8.95 8.95 0 000-17.9z" fill="#000"/></svg>