<svg width="26" height="36" fill="none" xmlns="http://www.w3.org/2000/svg"><g fill="#000"><path d="M18.08 11.59a3.672 3.672 0 01-3.67-3.67V0H2.201A2.2 2.2 0 000 2.202v30.83c0 1.219.991 2.202 2.202 2.202h21.596A2.2 2.2 0 0026 33.032V11.591h-7.92zm-6.232 3.788l3.868 3.869 4.243-4.243a.731.731 0 011.035 0 .74.74 0 010 1.042l-4.757 4.757a.74.74 0 01-1.042 0l-3.869-3.869-6.268 6.27a.703.703 0 01-.514.212.73.73 0 01-.521-1.248l6.79-6.79a.733.733 0 011.034 0zM4.346 7.942c-1.059-.895-.8-3.533 1.842-3.67v-.55h.697v.557c.808.067 1.571.353 2.298.837l-.72 1.028a3.41 3.41 0 00-1.578-.646v2.077c.33 0 1.41.38 1.902.808 1.046.892.928 3.544-1.902 3.707v.793h-.697v-.8c-1.013-.096-1.93-.507-2.73-1.204l.814-.97c.61.544 1.248.86 1.916.97V8.728c-.837-.198-1.446-.463-1.842-.786zM6.15 32.298H2.936v-6.614h3.215v6.614zm5.638 0H8.574V24.29h3.215v8.008zm5.637 0H14.21v-4.213h3.215v4.213zm5.638 0h-3.215v-11.73h3.215v11.73zM6.885 8.926v1.982c1.334-.136 1.786-1.514 0-1.982zm-.697-3.465c-1.056.07-1.346 1.003-.859 1.49.162.155.448.287.859.419V5.46z"/><path d="M18.08 10.123h7.722a2.27 2.27 0 00-.448-.646C16.049.17 16.457.46 15.877.206V7.92a2.2 2.2 0 002.203 2.203z"/></g></svg>