<svg width="40" height="28" fill="none" xmlns="http://www.w3.org/2000/svg"><g fill="#000"><path d="M21.07 8.848c-2.013.285-3.772 2.176-3.79 2.193a.428.428 0 01-.084.068c-2.736 1.776-4.279.425-4.342.344-1.75-1.576-.145-4.219-.077-4.33A16.114 16.114 0 0115.36 3.87H7.93L4.705 14.508a.39.39 0 01.093.072c5.005 5.66 11.65 10.681 14.272 12.576a1.339 1.339 0 001.729-2.035l-3.607-3.607a.425.425 0 11.603-.6l1.92 1.921 1.7 1.7.85.87a1.627 1.627 0 002.32-2.281l-3.31-3.454-.63-.65a.422.422 0 010-.604.425.425 0 01.604 0l4.83 5.014a1.699 1.699 0 002.894-1.134 1.653 1.653 0 00-.51-1.245l-2.897-2.804-2.018-1.96a.426.426 0 01.111-.719.425.425 0 01.48.112l5.735 5.553a1.597 1.597 0 102.188-2.324L21.07 8.85zM6.635 1.38A15.686 15.686 0 00-.394.011v16.663h2.596a1.275 1.275 0 001.228-.921l3.9-12.844a1.275 1.275 0 00-.696-1.53z"/><path d="M22.447 2.204a3.99 3.99 0 00-2.872-.064c-1.627.595-4.002 2.022-6.088 5.43 0 .025-1.305 2.124-.077 3.254.043.038 1.139.956 3.263-.4.306-.318 2.222-2.238 4.487-2.446a.425.425 0 01.323.11l11.135 10.197c.051.046.098.098.145.148 1.275-.195 2.124-1.36 2.37-1.784l-4.036-11-8.65-3.445zm17.097-.166a18.784 18.784 0 00-7.078 1.334 1.275 1.275 0 00-.689 1.627l4.729 12.87a1.303 1.303 0 001.215.85h2.673V2.058a14.827 14.827 0 00-.85-.021z"/></g></svg>