<svg width="111" height="29" fill="none" xmlns="http://www.w3.org/2000/svg"><path d="M5.562 23.655v-.42c0-1.097.29-1.953.874-2.568.585-.615 1.336-.923 2.25-.923.915 0 1.665.308 2.252.923.585.615.878 1.471.878 2.568v.42c0 1.097-.293 1.953-.879 2.569-.585.615-1.336.922-2.25.922-.915 0-1.666-.307-2.251-.922-.583-.616-.874-1.472-.874-2.569zm.99 0c0 .824.196 1.472.587 1.944.39.468.906.703 1.548.703.644 0 1.162-.235 1.552-.703.39-.472.586-1.12.586-1.944v-.42c0-.823-.195-1.47-.586-1.938-.39-.472-.908-.708-1.552-.708-.642 0-1.158.236-1.548.708-.391.469-.586 1.115-.586 1.938v.42zm10.738 4.663V27h-4.184v-5.259h.947v4.502h2.407v-4.502h.947v4.502h.757v2.075h-.874zm1.387-3.872v-.156c0-.791.224-1.437.674-1.938.449-.505 1.041-.757 1.777-.757.742 0 1.312.236 1.709.708.397.468.596 1.102.596 1.9v.4h-4.17v-.762h3.213v-.03c0-.406-.106-.747-.318-1.02-.208-.277-.547-.415-1.015-.415-.495 0-.87.185-1.123.557-.254.367-.381.82-.381 1.357v.156c0 .537.133.991.4 1.363.267.37.68.556 1.24.556.345 0 .642-.071.889-.215.25-.143.452-.314.605-.512l.61.507c-.168.248-.434.477-.795.689-.358.208-.794.313-1.309.313-.84 0-1.484-.251-1.933-.752-.446-.505-.67-1.154-.67-1.949zm5.786-2.705h.947v2.212h2.456v-2.212h.948V27h-.948v-2.29H25.41V27h-.947v-5.259zm5.493 2.705v-.156c0-.791.231-1.437.693-1.938.466-.505 1.086-.757 1.86-.757.779 0 1.399.252 1.861.757.466.5.698 1.147.698 1.938v.156c0 .795-.232 1.444-.698 1.948-.462.502-1.08.753-1.855.753-.778 0-1.4-.251-1.866-.752-.462-.505-.693-1.154-.693-1.949zm.972-.156v.161c0 .534.132.986.395 1.358.267.367.664.551 1.192.551.524 0 .92-.184 1.186-.551.267-.372.4-.826.4-1.363v-.156c0-.53-.133-.98-.4-1.348-.267-.37-.662-.556-1.186-.556-.528 0-.925.185-1.192.556-.263.368-.395.817-.395 1.348zm6.128-1.064c0 .423.081.719.244.888.163.17.434.254.815.254.332 0 .625-.024.88-.073.256-.049.544-.114.863-.195v.756c-.302.069-.586.13-.85.186a5.097 5.097 0 01-1.015.083c-.66 0-1.14-.16-1.44-.479-.296-.319-.445-.792-.445-1.42V21.74h.948v1.485zm3.276-1.485V27h-.947v-5.259h.947zm1.445 0h.948v2.212h2.456v-2.212h.947V27h-.947v-2.29h-2.456V27h-.948v-5.259zm5.518 3.711c0-.534.218-.949.654-1.245.44-.296.995-.444 1.665-.444h1.245v-.4c0-.297-.086-.538-.258-.723-.17-.19-.464-.284-.884-.284-.417 0-.715.082-.894.245a.745.745 0 00-.268.566v.024h-.948v-.024c0-.42.193-.786.577-1.099.384-.315.903-.473 1.557-.473.658 0 1.166.148 1.524.444.361.296.542.737.542 1.323v2.466c0 .212.016.412.048.6.036.186.084.35.142.494V27h-.918a1.72 1.72 0 01-.127-.327 1.93 1.93 0 01-.073-.4c-.13.218-.339.41-.625.576-.287.166-.656.249-1.108.249-.515 0-.953-.14-1.314-.42-.358-.284-.537-.692-.537-1.226zm.947-.049c0 .293.09.523.269.689.182.166.465.249.85.249.38 0 .725-.124 1.035-.371.309-.25.463-.515.463-.791v-.738h-1.142c-.485 0-.853.088-1.104.264a.81.81 0 00-.37.698zM53.945 27h-1.06l1.529-2.217.962.083L53.946 27zm2.354 0v-1.89h-1.162l-.088-.049c-.625 0-1.107-.146-1.446-.439-.338-.293-.507-.687-.507-1.182 0-.514.172-.926.517-1.235.349-.31.842-.464 1.48-.464h2.153V27H56.3zm-1.206-2.646h1.206v-1.856h-1.206c-.381 0-.65.09-.806.269a1 1 0 00-.23.673.96.96 0 00.23.66c.156.169.425.253.806.253zM64.55 27l-2.06-2.436.596-.616L65.737 27h-1.186zm-2.944-3.042h.953l1.845-2.217h1.09l-2.51 2.969h-1.378v-.752zm.474-2.217V27h-.947v-5.259h.947zm4.067 2.705v-.156c0-.791.232-1.437.694-1.938.465-.505 1.085-.757 1.86-.757.778 0 1.398.252 1.86.757.466.5.699 1.147.699 1.938v.156c0 .795-.233 1.444-.699 1.948-.462.502-1.08.753-1.855.753-.778 0-1.4-.251-1.865-.752-.462-.505-.694-1.154-.694-1.949zm.972-.156v.161c0 .534.132.986.396 1.358.267.367.664.551 1.191.551.524 0 .92-.184 1.187-.551.266-.372.4-.826.4-1.363v-.156c0-.53-.134-.98-.4-1.348-.267-.37-.663-.556-1.187-.556-.527 0-.924.185-1.191.556-.264.368-.396.817-.396 1.348zM72.402 27v-5.259h1.333l1.46 3.628c.078.192.129.326.152.4.026.075.047.152.063.23h.049c.016-.078.036-.155.059-.23.022-.074.073-.204.15-.39l1.47-3.638h1.31V27h-.919v-3.58c0-.194.002-.334.005-.419.007-.088.013-.164.02-.23h-.044a4.054 4.054 0 01-.21.635L75.845 27h-.87l-1.454-3.608a4.66 4.66 0 01-.142-.386 4.62 4.62 0 01-.064-.235h-.048c.006.069.011.145.014.23.007.081.01.21.01.386V27h-.889zm7.491-5.259h4.301V27h-.947v-4.502H80.84V27h-.947v-5.259zm5.468 3.711c0-.534.218-.949.655-1.245.44-.296.994-.444 1.665-.444h1.245v-.4c0-.297-.087-.538-.259-.723-.17-.19-.464-.284-.884-.284-.416 0-.714.082-.893.245a.745.745 0 00-.269.566v.024h-.947v-.024c0-.42.192-.786.576-1.099.384-.315.903-.473 1.558-.473.657 0 1.165.148 1.523.444.361.296.542.737.542 1.323v2.466c0 .212.016.412.049.6.036.186.083.35.142.494V27h-.918a1.72 1.72 0 01-.127-.327 1.93 1.93 0 01-.074-.4c-.13.218-.338.41-.625.576-.286.166-.656.249-1.108.249-.514 0-.952-.14-1.314-.42-.358-.284-.537-.692-.537-1.226zm.948-.049c0 .293.09.523.268.689.182.166.466.249.85.249.38 0 .726-.124 1.035-.371.31-.25.464-.515.464-.791v-.738h-1.143c-.485 0-.853.088-1.103.264a.81.81 0 00-.371.698zm5-3.662h.947v2.212h2.456v-2.212h.947V27h-.947v-2.29h-2.456V27h-.947v-5.259zM97.11 27v-5.259h.942v3.277c0 .1-.002.214-.005.341 0 .124-.002.236-.005.337h.044c.046-.084.096-.176.151-.273.059-.098.12-.199.186-.303l2.143-3.379h.962V27h-.942v-3.613a7.13 7.13 0 01.015-.337h-.054a6.038 6.038 0 01-.152.273 6.037 6.037 0 01-.18.308L98.071 27h-.962zm6.572 0h-1.06l1.528-2.217.962.083-1.43 2.134zm2.353 0v-1.89h-1.162l-.088-.049c-.625 0-1.107-.146-1.445-.439-.339-.293-.508-.687-.508-1.182 0-.514.173-.926.518-1.235.348-.31.841-.464 1.479-.464h2.153V27h-.947zm-1.206-2.646h1.206v-1.856h-1.206c-.381 0-.649.09-.806.269a1 1 0 00-.229.673.96.96 0 00.229.66c.157.169.425.253.806.253zM1.968 4.6h4.2c.672 0 1.24.116 1.704.348.472.224.828.54 1.068.948.248.4.372.872.372 1.416 0 .536-.128 1.008-.384 1.416-.256.4-.62.712-1.092.936-.472.224-1.028.336-1.668.336H.696l.708-4.752L.696 1h7.872v1.32H1.692l.6-.804.624 3.708-.648 4.296-.612-.792h4.368c.52 0 .932-.128 1.236-.384.312-.264.468-.62.468-1.068 0-.448-.156-.8-.468-1.056-.312-.264-.728-.396-1.248-.396H1.968V4.6zM18.8 10.168c-1.017 0-1.909-.196-2.677-.588a4.382 4.382 0 01-1.776-1.632c-.424-.704-.636-1.52-.636-2.448 0-.928.212-1.74.636-2.436a4.355 4.355 0 011.776-1.644c.768-.392 1.66-.588 2.676-.588 1.016 0 1.904.196 2.664.588.768.392 1.364.94 1.788 1.644.432.696.648 1.508.648 2.436 0 .928-.216 1.744-.648 2.448-.424.696-1.02 1.24-1.788 1.632-.76.392-1.648.588-2.664.588zM10.59 10V1h1.584v9H10.59zm.852-3.84V4.768h3.084V6.16h-3.084zM18.8 8.74c.72 0 1.34-.132 1.86-.396s.92-.64 1.2-1.128c.288-.488.432-1.06.432-1.716 0-.664-.144-1.236-.432-1.716a2.821 2.821 0 00-1.2-1.128c-.52-.272-1.14-.408-1.86-.408-.712 0-1.332.136-1.86.408-.52.264-.924.64-1.212 1.128-.28.48-.42 1.052-.42 1.716 0 .656.14 1.228.42 1.716.288.488.692.864 1.212 1.128.528.264 1.148.396 1.86.396zM30.095 1c.672 0 1.252.12 1.74.36.495.24.876.576 1.14 1.008.271.424.407.916.407 1.476 0 .56-.136 1.056-.407 1.488-.264.424-.645.756-1.14.996-.489.24-1.069.36-1.74.36H26.05V5.32h3.984c.543 0 .968-.132 1.271-.396.313-.264.468-.624.468-1.08 0-.456-.155-.816-.468-1.08-.303-.264-.728-.396-1.271-.396h-3.829l.709-.792V10H25.33V1h4.764zm9.147 9.168c-1.024 0-1.924-.196-2.7-.588-.776-.392-1.38-.936-1.812-1.632-.432-.704-.648-1.52-.648-2.448 0-.928.216-1.74.648-2.436a4.403 4.403 0 011.812-1.644c.776-.392 1.676-.588 2.7-.588 1.024 0 1.924.196 2.7.588.776.392 1.38.94 1.812 1.644.432.696.648 1.508.648 2.436 0 .928-.216 1.744-.648 2.448-.432.696-1.036 1.24-1.812 1.632-.776.392-1.676.588-2.7.588zm0-1.416c.728 0 1.356-.132 1.884-.396.528-.264.936-.64 1.224-1.128.296-.488.444-1.064.444-1.728 0-.664-.148-1.24-.444-1.728a2.882 2.882 0 00-1.224-1.128c-.528-.264-1.156-.396-1.884-.396-.72 0-1.348.132-1.884.396a2.96 2.96 0 00-1.236 1.128c-.288.488-.432 1.064-.432 1.728 0 .664.144 1.24.432 1.728a2.96 2.96 0 001.236 1.128c.536.264 1.164.396 1.884.396zm14.315 1.416c-1.024 0-1.924-.196-2.7-.588-.776-.392-1.38-.936-1.812-1.632-.432-.704-.648-1.52-.648-2.448 0-.928.216-1.74.648-2.436a4.403 4.403 0 011.812-1.644c.776-.392 1.676-.588 2.7-.588 1.024 0 1.924.196 2.7.588.776.392 1.38.94 1.812 1.644.432.696.648 1.508.648 2.436 0 .928-.216 1.744-.648 2.448-.432.696-1.036 1.24-1.812 1.632-.776.392-1.676.588-2.7.588zm0-1.416c.728 0 1.356-.132 1.884-.396.528-.264.936-.64 1.224-1.128.296-.488.444-1.064.444-1.728 0-.664-.148-1.24-.444-1.728a2.882 2.882 0 00-1.224-1.128c-.528-.264-1.156-.396-1.884-.396-.72 0-1.348.132-1.884.396a2.96 2.96 0 00-1.236 1.128c-.288.488-.432 1.064-.432 1.728 0 .664.144 1.24.432 1.728a2.96 2.96 0 001.236 1.128c.536.264 1.164.396 1.884.396zM68.896 1v8.076l-.48-.48h2.064v3.252h-1.476V9.772l.72.228h-9.588V1h1.584v8.076l-.48-.48h6.564l-.48.48V1h1.572zm9.956 3.84v1.32h-6.288V4.84h6.288zm-5.244.66l-.636 4.02-.756-.888H79.2V10h-7.848l.72-4.5-.72-4.5h7.788v1.368h-6.924l.756-.888.636 4.02zM80.732 1h1.584v9h-1.584V1zm7.32 0h1.584v9h-1.584V1zm-6.468 3.768h7.224V6.16h-7.224V4.768zM91.533 10V1h1.585v7.668l-.48-.3L98.66 1h1.716l-7.428 9h-1.416zm4.284-4.524l1.116-1.092L100.51 10h-1.812l-2.88-4.524zM101.398 10V1h1.536v8.256l-.54-.096L108.67 1h2.064v9h-1.536V1.672l.54.096L103.414 10h-2.016z" fill="#111"/></svg>